<svg xmlns="http://www.w3.org/2000/svg" xmlns:xlink="http://www.w3.org/1999/xlink" width="200" zoomAndPan="magnify" viewBox="0 0 150 149.999998" height="200" preserveAspectRatio="xMidYMid meet" version="1.0"><defs><filter x="0%" y="0%" width="100%" height="100%" id="be0d370b7b"><feColorMatrix values="0 0 0 0 1 0 0 0 0 1 0 0 0 0 1 0 0 0 1 0" color-interpolation-filters="sRGB"/></filter><clipPath id="1ee7a3ecf7"><path d="M 78 17.441406 L 137 17.441406 L 137 132.191406 L 78 132.191406 Z M 78 17.441406 " clip-rule="nonzero"/></clipPath><clipPath id="04c77035f9"><path d="M 43 17.441406 L 102 17.441406 L 102 132.191406 L 43 132.191406 Z M 43 17.441406 " clip-rule="nonzero"/></clipPath><clipPath id="11054bc617"><path d="M 7 17.441406 L 67 17.441406 L 67 132.191406 L 7 132.191406 Z M 7 17.441406 " clip-rule="nonzero"/></clipPath><mask id="5e4f2ab48e"><g filter="url(#be0d370b7b)"><rect x="-15" width="180" fill="#000000" y="-15" height="179.999997" fill-opacity="0.18"/></g></mask><clipPath id="c9782c33b3"><path d="M 0.0390625 0.441406 L 58.601562 0.441406 L 58.601562 115.191406 L 0.0390625 115.191406 Z M 0.0390625 0.441406 " clip-rule="nonzero"/></clipPath><clipPath id="5f660afac5"><rect x="0" width="59" y="0" height="116"/></clipPath><mask id="2bcd90c9a3"><g filter="url(#be0d370b7b)"><rect x="-15" width="180" fill="#000000" y="-15" height="179.999997" fill-opacity="0.18"/></g></mask><clipPath id="1f7c909c67"><path d="M 1 0.441406 L 59.441406 0.441406 L 59.441406 115.191406 L 1 115.191406 Z M 1 0.441406 " clip-rule="nonzero"/></clipPath><clipPath id="c32a337f44"><rect x="0" width="60" y="0" height="116"/></clipPath><mask id="f639dee5a9"><g filter="url(#be0d370b7b)"><rect x="-15" width="180" fill="#000000" y="-15" height="179.999997" fill-opacity="0.18"/></g></mask><clipPath id="fa1c1dec19"><path d="M 0.359375 0.441406 L 58.921875 0.441406 L 58.921875 115.191406 L 0.359375 115.191406 Z M 0.359375 0.441406 " clip-rule="nonzero"/></clipPath><clipPath id="0d128c6e90"><rect x="0" width="59" y="0" height="116"/></clipPath></defs><g clip-path="url(#1ee7a3ecf7)"><path fill="#ff3131" d="M 80.941406 131.730469 C 70.367188 110.585938 93.550781 89.839844 106.96875 76.828125 C 123.238281 61.371094 132.59375 45.101562 125.679688 22.734375 C 125.273438 21.105469 124.460938 19.074219 123.644531 17.449219 C 137.878906 28.835938 140.726562 53.238281 130.152344 68.285156 C 117.136719 86.179688 97.207031 97.976562 85.820312 117.496094 C 83.382812 122.378906 80.535156 127.664062 83.382812 132.542969 " fill-opacity="1" fill-rule="nonzero"/></g><g clip-path="url(#04c77035f9)"><path fill="#5e17eb" d="M 45.757812 131.730469 C 35.183594 110.585938 58.363281 89.839844 71.785156 76.828125 C 88.054688 61.371094 97.410156 45.101562 90.496094 22.734375 C 90.089844 21.105469 89.277344 19.074219 88.460938 17.449219 C 102.695312 28.835938 105.542969 53.238281 94.96875 68.285156 C 81.953125 86.179688 62.023438 97.976562 50.636719 117.496094 C 48.199219 122.378906 45.351562 127.664062 48.199219 132.542969 " fill-opacity="1" fill-rule="nonzero"/></g><g clip-path="url(#11054bc617)"><path fill="#004aad" d="M 10.574219 131.730469 C 0 110.585938 23.179688 89.839844 36.601562 76.828125 C 52.871094 61.371094 62.226562 45.101562 55.3125 22.734375 C 54.90625 21.105469 54.09375 19.074219 53.277344 17.449219 C 67.511719 28.835938 70.359375 53.238281 59.785156 68.285156 C 46.769531 86.179688 26.839844 97.976562 15.453125 117.496094 C 13.015625 122.378906 10.167969 127.664062 13.015625 132.542969 " fill-opacity="1" fill-rule="nonzero"/></g><g mask="url(#5e4f2ab48e)"><g transform="matrix(1, 0, 0, 1, 17, 17)"><g clip-path="url(#5f660afac5)"><g clip-path="url(#c9782c33b3)"><path fill="#000000" d="M 2.839844 114.730469 C -7.734375 93.585938 15.445312 72.839844 28.867188 59.828125 C 45.136719 44.371094 54.492188 28.101562 47.578125 5.734375 C 47.171875 4.105469 46.355469 2.074219 45.542969 0.449219 C 59.777344 11.835938 62.625 36.238281 52.050781 51.285156 C 39.035156 69.179688 19.105469 80.976562 7.71875 100.496094 C 5.277344 105.378906 2.433594 110.664062 5.277344 115.542969 " fill-opacity="1" fill-rule="nonzero"/></g></g></g></g><g mask="url(#2bcd90c9a3)"><g transform="matrix(1, 0, 0, 1, 50, 17)"><g clip-path="url(#c32a337f44)"><g clip-path="url(#1f7c909c67)"><path fill="#000000" d="M 3.742188 114.730469 C -6.828125 93.585938 16.351562 72.839844 29.773438 59.828125 C 46.042969 44.371094 55.394531 28.101562 48.480469 5.734375 C 48.074219 4.105469 47.261719 2.074219 46.449219 0.449219 C 60.683594 11.835938 63.53125 36.238281 52.957031 51.285156 C 39.941406 69.179688 20.011719 80.976562 8.625 100.496094 C 6.183594 105.378906 3.335938 110.664062 6.183594 115.542969 " fill-opacity="1" fill-rule="nonzero"/></g></g></g></g><g mask="url(#f639dee5a9)"><g transform="matrix(1, 0, 0, 1, 87, 17)"><g clip-path="url(#0d128c6e90)"><g clip-path="url(#fa1c1dec19)"><path fill="#000000" d="M 3.207031 114.730469 C -7.367188 93.585938 15.8125 72.839844 29.234375 59.828125 C 45.503906 44.371094 54.859375 28.101562 47.945312 5.734375 C 47.539062 4.105469 46.726562 2.074219 45.910156 0.449219 C 60.144531 11.835938 62.992188 36.238281 52.417969 51.285156 C 39.402344 69.179688 19.472656 80.976562 8.085938 100.496094 C 5.648438 105.378906 2.800781 110.664062 5.648438 115.542969 " fill-opacity="1" fill-rule="nonzero"/></g></g></g></g></svg>